# 3ds Max Wavefront OBJ Exporter v0.99 - (c)2007 guruware
# File Created: 30.01.2024 12:56:09

mtllib OutOfBoundsMeteors.mtl

#
# object Solar_Shard
#

v  -8.116 0.942 8.116
v  0.000 0.000 10.000
v  8.116 0.942 8.116
v  -10.000 0.000 -0.000
v  0.000 -4.209 -0.000
v  10.000 0.000 -0.000
v  -8.116 0.942 -8.116
v  0.000 0.000 -10.000
v  8.116 0.942 -8.116
v  -8.116 9.058 8.116
v  0.000 10.000 10.000
v  8.116 9.058 8.116
v  -10.000 10.000 -0.000
v  0.000 14.209 -0.000
v  10.000 10.000 -0.000
v  -8.116 9.058 -8.116
v  0.000 10.000 -10.000
v  8.116 9.058 -8.116
v  -7.569 5.000 10.000
v  0.000 5.000 34.962
v  7.569 5.000 10.000
v  18.417 5.000 -0.000
v  7.569 5.000 -10.000
v  0.000 5.000 -34.962
v  -7.569 5.000 -10.000
v  -18.417 5.000 -0.000
v  3.453 5.000 -0.000
v  -3.453 5.000 -0.000
# 28 vertices

vn -0.148 -0.978 0.148
vn -0.148 -0.978 0.148
vn -0.148 -0.978 0.148
vn 0.148 -0.978 0.148
vn 0.148 -0.978 0.148
vn 0.148 -0.978 0.148
vn -0.362 -0.859 -0.362
vn -0.362 -0.859 -0.362
vn -0.362 -0.859 -0.362
vn 0.362 -0.859 -0.362
vn 0.362 -0.859 -0.362
vn 0.362 -0.859 -0.362
vn -0.148 0.978 0.148
vn -0.148 0.978 0.148
vn -0.148 0.978 0.148
vn 0.362 0.859 0.362
vn 0.362 0.859 0.362
vn 0.362 0.859 0.362
vn -0.148 0.978 -0.148
vn -0.148 0.978 -0.148
vn -0.148 0.978 -0.148
vn 0.362 0.859 -0.362
vn 0.362 0.859 -0.362
vn 0.362 0.859 -0.362
vn -0.251 -0.380 0.890
vn -0.251 -0.380 0.890
vn -0.251 -0.380 0.890
vn 0.544 -0.823 0.165
vn 0.544 -0.823 0.165
vn 0.544 -0.823 0.165
vn -0.251 0.380 0.890
vn -0.251 0.380 0.890
vn -0.251 0.380 0.890
vn 0.544 0.823 0.165
vn 0.544 0.823 0.165
vn 0.544 0.823 0.165
vn 0.974 0.028 0.223
vn 0.974 0.028 0.223
vn 0.974 0.028 0.223
vn 0.447 -0.752 -0.485
vn 0.447 -0.752 -0.485
vn 0.447 -0.752 -0.485
vn 0.974 -0.028 0.223
vn 0.974 -0.028 0.223
vn 0.974 -0.028 0.223
vn 0.447 0.752 -0.485
vn 0.447 0.752 -0.485
vn 0.447 0.752 -0.485
vn 0.251 -0.380 -0.890
vn 0.251 -0.380 -0.890
vn 0.251 -0.380 -0.890
vn -0.544 -0.823 -0.165
vn -0.544 -0.823 -0.165
vn -0.544 -0.823 -0.165
vn 0.251 0.380 -0.890
vn 0.251 0.380 -0.890
vn 0.251 0.380 -0.890
vn -0.544 0.823 -0.165
vn -0.544 0.823 -0.165
vn -0.544 0.823 -0.165
vn -0.974 0.028 -0.223
vn -0.974 0.028 -0.223
vn -0.974 0.028 -0.223
vn -0.447 -0.752 0.485
vn -0.447 -0.752 0.485
vn -0.447 -0.752 0.485
vn -0.974 -0.028 -0.223
vn -0.974 -0.028 -0.223
vn -0.974 -0.028 -0.223
vn -0.447 0.752 0.485
vn -0.447 0.752 0.485
vn -0.447 0.752 0.485
vn -0.974 -0.028 0.223
vn -0.974 -0.028 0.223
vn -0.974 -0.028 0.223
vn -0.447 -0.752 -0.485
vn -0.447 -0.752 -0.485
vn -0.447 -0.752 -0.485
vn -0.974 0.028 0.223
vn -0.974 0.028 0.223
vn -0.974 0.028 0.223
vn -0.447 0.752 -0.485
vn -0.447 0.752 -0.485
vn -0.447 0.752 -0.485
vn 0.447 -0.752 0.485
vn 0.447 -0.752 0.485
vn 0.447 -0.752 0.485
vn 0.974 0.028 -0.223
vn 0.974 0.028 -0.223
vn 0.974 0.028 -0.223
vn 0.447 0.752 0.485
vn 0.447 0.752 0.485
vn 0.447 0.752 0.485
vn 0.974 -0.028 -0.223
vn 0.974 -0.028 -0.223
vn 0.974 -0.028 -0.223
vn -0.362 0.859 0.362
vn -0.362 0.859 0.362
vn -0.362 0.859 0.362
vn 0.148 0.978 0.148
vn 0.148 0.978 0.148
vn 0.148 0.978 0.148
vn -0.362 0.859 -0.362
vn -0.362 0.859 -0.362
vn -0.362 0.859 -0.362
vn 0.148 0.978 -0.148
vn 0.148 0.978 -0.148
vn 0.148 0.978 -0.148
vn -0.362 -0.859 0.362
vn -0.362 -0.859 0.362
vn -0.362 -0.859 0.362
vn 0.362 -0.859 0.362
vn 0.362 -0.859 0.362
vn 0.362 -0.859 0.362
vn -0.148 -0.978 -0.148
vn -0.148 -0.978 -0.148
vn -0.148 -0.978 -0.148
vn 0.148 -0.978 -0.148
vn 0.148 -0.978 -0.148
vn 0.148 -0.978 -0.148
vn 0.544 -0.823 -0.165
vn 0.544 -0.823 -0.165
vn 0.544 -0.823 -0.165
vn -0.251 -0.380 -0.890
vn -0.251 -0.380 -0.890
vn -0.251 -0.380 -0.890
vn 0.544 0.823 -0.165
vn 0.544 0.823 -0.165
vn 0.544 0.823 -0.165
vn -0.251 0.380 -0.890
vn -0.251 0.380 -0.890
vn -0.251 0.380 -0.890
vn -0.544 -0.823 0.165
vn -0.544 -0.823 0.165
vn -0.544 -0.823 0.165
vn 0.251 -0.380 0.890
vn 0.251 -0.380 0.890
vn 0.251 -0.380 0.890
vn -0.544 0.823 0.165
vn -0.544 0.823 0.165
vn -0.544 0.823 0.165
vn 0.251 0.380 0.890
vn 0.251 0.380 0.890
vn 0.251 0.380 0.890
# 144 vertex normals

vt 1.000 0.000 0.000
vt 1.000 0.500 0.000
vt 0.500 0.000 0.000
vt 0.000 0.500 0.000
vt 0.000 0.000 0.000
vt 0.500 1.000 0.000
vt 0.500 0.500 0.000
vt 0.000 1.000 0.000
vt 1.000 1.000 0.000
# 9 texture coords

o Solar_Shard
g Solar_Shard
usemtl wire_148177027
s off
f 1/1/1 4/2/2 2/3/3 
f 2/3/4 6/4/5 3/5/6 
f 4/2/7 8/6/8 5/7/9 
f 5/7/10 8/6/11 6/4/12 
f 10/5/13 11/3/14 13/4/15 
f 11/3/16 15/2/17 14/7/18 
f 13/4/19 17/6/20 16/8/21 
f 14/7/22 15/2/23 17/6/24 
f 1/5/25 2/3/26 19/4/27 
f 2/3/28 21/2/29 20/7/30 
f 19/4/31 11/6/32 10/8/33 
f 20/7/34 21/2/35 11/6/36 
f 3/5/37 6/3/38 21/4/39 
f 6/3/40 23/2/41 22/7/42 
f 21/4/43 15/6/44 12/8/45 
f 22/7/46 23/2/47 15/6/48 
f 9/5/49 8/3/50 23/4/51 
f 8/3/52 25/2/53 24/7/54 
f 23/4/55 17/6/56 18/8/57 
f 24/7/58 25/2/59 17/6/60 
f 7/5/61 4/3/62 25/4/63 
f 4/3/64 19/2/65 26/7/66 
f 25/4/67 13/6/68 16/8/69 
f 26/7/70 19/2/71 13/6/72 
f 19/2/73 10/9/74 13/6/75 
f 4/3/76 26/7/77 25/4/78 
f 4/3/79 1/1/80 19/2/81 
f 25/4/82 26/7/83 13/6/84 
f 6/3/85 22/7/86 21/4/87 
f 6/3/88 9/1/89 23/2/90 
f 21/4/91 22/7/92 15/6/93 
f 23/2/94 18/9/95 15/6/96 
f 11/3/97 14/7/98 13/4/99 
f 11/3/100 12/1/101 15/2/102 
f 13/4/103 14/7/104 17/6/105 
f 15/2/106 18/9/107 17/6/108 
f 4/2/109 5/7/110 2/3/111 
f 2/3/112 5/7/113 6/4/114 
f 4/2/115 7/9/116 8/6/117 
f 8/6/118 9/8/119 6/4/120 
f 8/3/121 24/7/122 23/4/123 
f 8/3/124 7/1/125 25/2/126 
f 23/4/127 24/7/128 17/6/129 
f 25/2/130 16/9/131 17/6/132 
f 2/3/133 20/7/134 19/4/135 
f 2/3/136 3/1/137 21/2/138 
f 19/4/139 20/7/140 11/6/141 
f 21/2/142 12/9/143 11/6/144 
# 48 faces

#
# object Solar_Fragment
#

v  -5.000 0.000 5.000
v  0.000 1.004 3.326
v  5.000 0.000 5.000
v  -3.326 1.004 -0.000
v  0.000 -2.295 -0.000
v  3.326 1.004 -0.000
v  -5.000 0.000 -5.000
v  0.000 1.004 -3.326
v  5.000 0.000 -5.000
v  -5.000 10.000 5.000
v  0.078 8.968 3.342
v  4.937 9.944 4.969
v  -3.326 8.996 -0.000
v  0.000 12.295 -0.000
v  3.326 8.996 -0.000
v  -5.000 10.000 -5.000
v  0.000 8.996 -3.326
v  5.000 10.000 -5.000
v  -3.326 5.000 3.326
v  0.000 5.000 7.536
v  3.311 5.085 3.342
v  7.536 5.000 -0.000
v  3.326 5.000 -3.326
v  0.000 5.000 -7.536
v  -3.326 5.000 -3.326
v  -7.536 5.000 -0.000
v  0.000 -0.191 1.230
v  -1.230 -0.191 -0.000
v  0.000 -0.191 -1.230
v  1.230 -0.191 -0.000
v  -1.230 10.191 -0.000
v  0.000 10.191 1.230
v  1.230 10.191 -0.000
v  0.000 10.191 -1.230
v  -1.230 5.000 4.852
v  0.000 3.523 4.852
v  1.230 5.000 4.852
v  0.000 6.477 4.852
v  4.852 5.000 1.230
v  4.852 3.523 -0.000
v  4.852 5.000 -1.230
v  4.852 6.477 -0.000
v  1.230 5.000 -4.852
v  0.000 3.523 -4.852
v  -1.230 5.000 -4.852
v  0.000 6.477 -4.852
v  -4.852 5.000 -1.230
v  -4.852 3.523 -0.000
v  -4.852 5.000 1.230
v  -4.852 6.477 -0.000
# 50 vertices

vn 0.147 -0.978 -0.147
vn 0.147 -0.978 -0.147
vn 0.147 -0.978 -0.147
vn -0.147 -0.978 -0.147
vn -0.147 -0.978 -0.147
vn -0.147 -0.978 -0.147
vn -0.653 -0.382 -0.653
vn -0.653 -0.382 -0.653
vn -0.653 -0.382 -0.653
vn 0.653 -0.382 -0.653
vn 0.653 -0.382 -0.653
vn 0.653 -0.382 -0.653
vn 0.151 0.978 -0.146
vn 0.151 0.978 -0.146
vn 0.151 0.978 -0.146
vn 0.653 0.382 0.653
vn 0.653 0.382 0.653
vn 0.653 0.382 0.653
vn 0.147 0.978 0.147
vn 0.147 0.978 0.147
vn 0.147 0.978 0.147
vn 0.653 0.382 -0.653
vn 0.653 0.382 -0.653
vn 0.653 0.382 -0.653
vn 0.269 0.224 0.937
vn 0.269 0.224 0.937
vn 0.269 0.224 0.937
vn 0.725 -0.603 0.332
vn 0.725 -0.603 0.332
vn 0.725 -0.603 0.332
vn 0.260 -0.227 0.938
vn 0.260 -0.227 0.938
vn 0.260 -0.227 0.938
vn 0.725 0.603 0.332
vn 0.725 0.603 0.332
vn 0.725 0.603 0.332
vn 0.937 0.224 -0.269
vn 0.937 0.224 -0.269
vn 0.937 0.224 -0.269
vn 0.332 -0.603 -0.725
vn 0.332 -0.603 -0.725
vn 0.332 -0.603 -0.725
vn 0.938 -0.227 -0.261
vn 0.938 -0.227 -0.261
vn 0.938 -0.227 -0.261
vn 0.332 0.603 -0.725
vn 0.332 0.603 -0.725
vn 0.332 0.603 -0.725
vn -0.269 0.224 -0.937
vn -0.269 0.224 -0.937
vn -0.269 0.224 -0.937
vn -0.725 -0.603 -0.332
vn -0.725 -0.603 -0.332
vn -0.725 -0.603 -0.332
vn -0.269 -0.224 -0.937
vn -0.269 -0.224 -0.937
vn -0.269 -0.224 -0.937
vn -0.725 0.603 -0.332
vn -0.725 0.603 -0.332
vn -0.725 0.603 -0.332
vn -0.937 0.224 0.269
vn -0.937 0.224 0.269
vn -0.937 0.224 0.269
vn -0.332 -0.603 0.725
vn -0.332 -0.603 0.725
vn -0.332 -0.603 0.725
vn -0.937 -0.224 0.269
vn -0.937 -0.224 0.269
vn -0.937 -0.224 0.269
vn -0.332 0.603 0.725
vn -0.332 0.603 0.725
vn -0.332 0.603 0.725
vn -0.653 -0.382 0.653
vn -0.653 -0.382 0.653
vn -0.653 -0.382 0.653
vn 0.653 -0.382 0.653
vn 0.653 -0.382 0.653
vn 0.653 -0.382 0.653
vn 0.147 -0.978 0.147
vn 0.147 -0.978 0.147
vn 0.147 -0.978 0.147
vn -0.147 -0.978 0.147
vn -0.147 -0.978 0.147
vn -0.147 -0.978 0.147
vn -0.653 0.382 0.653
vn -0.653 0.382 0.653
vn -0.653 0.382 0.653
vn -0.150 0.979 -0.138
vn -0.150 0.979 -0.138
vn -0.150 0.979 -0.138
vn -0.653 0.382 -0.653
vn -0.653 0.382 -0.653
vn -0.653 0.382 -0.653
vn -0.147 0.978 0.147
vn -0.147 0.978 0.147
vn -0.147 0.978 0.147
vn -0.725 -0.603 0.332
vn -0.725 -0.603 0.332
vn -0.725 -0.603 0.332
vn -0.271 0.216 0.938
vn -0.271 0.216 0.938
vn -0.271 0.216 0.938
vn -0.725 0.603 0.332
vn -0.725 0.603 0.332
vn -0.725 0.603 0.332
vn -0.269 -0.224 0.937
vn -0.269 -0.224 0.937
vn -0.269 -0.224 0.937
vn 0.332 -0.603 0.725
vn 0.332 -0.603 0.725
vn 0.332 -0.603 0.725
vn 0.937 0.224 0.269
vn 0.937 0.224 0.269
vn 0.937 0.224 0.269
vn 0.332 0.603 0.725
vn 0.332 0.603 0.725
vn 0.332 0.603 0.725
vn 0.937 -0.224 0.269
vn 0.937 -0.224 0.269
vn 0.937 -0.224 0.269
vn 0.725 -0.603 -0.332
vn 0.725 -0.603 -0.332
vn 0.725 -0.603 -0.332
vn 0.269 0.224 -0.937
vn 0.269 0.224 -0.937
vn 0.269 0.224 -0.937
vn 0.725 0.603 -0.332
vn 0.725 0.603 -0.332
vn 0.725 0.603 -0.332
vn 0.269 -0.224 -0.937
vn 0.269 -0.224 -0.937
vn 0.269 -0.224 -0.937
vn -0.332 -0.603 -0.725
vn -0.332 -0.603 -0.725
vn -0.332 -0.603 -0.725
vn -0.937 0.224 -0.269
vn -0.937 0.224 -0.269
vn -0.937 0.224 -0.269
vn -0.332 0.603 -0.725
vn -0.332 0.603 -0.725
vn -0.332 0.603 -0.725
vn -0.937 -0.224 -0.269
vn -0.937 -0.224 -0.269
vn -0.937 -0.224 -0.269
vn -0.444 -0.778 0.444
vn -0.444 -0.778 0.444
vn -0.444 -0.778 0.444
vn -0.444 -0.778 0.444
vn -0.444 -0.778 0.444
vn -0.444 -0.778 0.444
vn -0.444 -0.778 -0.444
vn -0.444 -0.778 -0.444
vn -0.444 -0.778 -0.444
vn -0.444 -0.778 -0.444
vn -0.444 -0.778 -0.444
vn -0.444 -0.778 -0.444
vn 0.444 -0.778 -0.444
vn 0.444 -0.778 -0.444
vn 0.444 -0.778 -0.444
vn 0.444 -0.778 -0.444
vn 0.444 -0.778 -0.444
vn 0.444 -0.778 -0.444
vn 0.444 -0.778 0.444
vn 0.444 -0.778 0.444
vn 0.444 -0.778 0.444
vn 0.444 -0.778 0.444
vn 0.444 -0.778 0.444
vn 0.444 -0.778 0.444
vn -0.446 0.767 0.461
vn -0.446 0.767 0.461
vn -0.446 0.767 0.461
vn -0.444 0.778 0.444
vn -0.444 0.778 0.444
vn -0.444 0.778 0.444
vn 0.445 0.780 0.439
vn 0.445 0.780 0.439
vn 0.445 0.780 0.439
vn 0.438 0.785 0.438
vn 0.438 0.785 0.438
vn 0.438 0.785 0.438
vn 0.444 0.778 -0.444
vn 0.444 0.778 -0.444
vn 0.444 0.778 -0.444
vn 0.444 0.778 -0.444
vn 0.444 0.778 -0.444
vn 0.444 0.778 -0.444
vn -0.444 0.778 -0.444
vn -0.444 0.778 -0.444
vn -0.444 0.778 -0.444
vn -0.444 0.778 -0.444
vn -0.444 0.778 -0.444
vn -0.444 0.778 -0.444
vn -0.528 -0.440 0.726
vn -0.528 -0.440 0.726
vn -0.528 -0.440 0.726
vn -0.528 -0.440 0.726
vn -0.528 -0.440 0.726
vn -0.528 -0.440 0.726
vn 0.539 -0.440 0.718
vn 0.539 -0.440 0.718
vn 0.539 -0.440 0.718
vn 0.528 -0.440 0.726
vn 0.528 -0.440 0.726
vn 0.528 -0.440 0.726
vn 0.518 0.431 0.738
vn 0.518 0.431 0.738
vn 0.518 0.431 0.738
vn 0.518 0.431 0.738
vn 0.518 0.431 0.738
vn 0.518 0.431 0.738
vn -0.526 0.448 0.723
vn -0.526 0.448 0.723
vn -0.526 0.448 0.723
vn -0.539 0.449 0.713
vn -0.539 0.449 0.713
vn -0.539 0.449 0.713
vn 0.722 -0.437 0.537
vn 0.722 -0.437 0.537
vn 0.722 -0.437 0.537
vn 0.714 -0.448 0.538
vn 0.714 -0.448 0.538
vn 0.714 -0.448 0.538
vn 0.726 -0.440 -0.528
vn 0.726 -0.440 -0.528
vn 0.726 -0.440 -0.528
vn 0.726 -0.440 -0.528
vn 0.726 -0.440 -0.528
vn 0.726 -0.440 -0.528
vn 0.726 0.440 -0.528
vn 0.726 0.440 -0.528
vn 0.726 0.440 -0.528
vn 0.726 0.440 -0.528
vn 0.726 0.440 -0.528
vn 0.726 0.440 -0.528
vn 0.734 0.440 0.518
vn 0.734 0.440 0.518
vn 0.734 0.440 0.518
vn 0.726 0.440 0.528
vn 0.726 0.440 0.528
vn 0.726 0.440 0.528
vn 0.528 -0.440 -0.726
vn 0.528 -0.440 -0.726
vn 0.528 -0.440 -0.726
vn 0.528 -0.440 -0.726
vn 0.528 -0.440 -0.726
vn 0.528 -0.440 -0.726
vn -0.528 -0.440 -0.726
vn -0.528 -0.440 -0.726
vn -0.528 -0.440 -0.726
vn -0.528 -0.440 -0.726
vn -0.528 -0.440 -0.726
vn -0.528 -0.440 -0.726
vn -0.528 0.440 -0.726
vn -0.528 0.440 -0.726
vn -0.528 0.440 -0.726
vn -0.528 0.440 -0.726
vn -0.528 0.440 -0.726
vn -0.528 0.440 -0.726
vn 0.528 0.440 -0.726
vn 0.528 0.440 -0.726
vn 0.528 0.440 -0.726
vn 0.528 0.440 -0.726
vn 0.528 0.440 -0.726
vn 0.528 0.440 -0.726
vn -0.726 -0.440 -0.528
vn -0.726 -0.440 -0.528
vn -0.726 -0.440 -0.528
vn -0.726 -0.440 -0.528
vn -0.726 -0.440 -0.528
vn -0.726 -0.440 -0.528
vn -0.726 -0.440 0.528
vn -0.726 -0.440 0.528
vn -0.726 -0.440 0.528
vn -0.726 -0.440 0.528
vn -0.726 -0.440 0.528
vn -0.726 -0.440 0.528
vn -0.726 0.440 0.528
vn -0.726 0.440 0.528
vn -0.726 0.440 0.528
vn -0.726 0.440 0.528
vn -0.726 0.440 0.528
vn -0.726 0.440 0.528
vn -0.726 0.440 -0.528
vn -0.726 0.440 -0.528
vn -0.726 0.440 -0.528
vn -0.726 0.440 -0.528
vn -0.726 0.440 -0.528
vn -0.726 0.440 -0.528
# 288 vertex normals

vt 1.000 0.000 0.000
vt 1.000 0.500 0.000
vt 0.500 0.000 0.000
vt 0.000 0.500 0.000
vt 0.000 0.000 0.000
vt 0.500 1.000 0.000
vt 0.500 0.500 0.000
vt 0.000 1.000 0.000
vt 1.000 1.000 0.000
# 9 texture coords

o Solar_Fragment
g Solar_Fragment
usemtl wire_176026026
s off
f 29/10/145 32/11/146 30/12/147 
f 30/12/148 34/13/149 31/14/150 
f 56/11/151 57/15/152 33/16/153 
f 33/16/154 57/15/155 58/13/156 
f 38/14/157 39/12/158 41/13/159 
f 60/12/160 61/11/161 42/16/162 
f 41/13/163 45/15/164 44/17/165 
f 42/16/166 61/11/167 62/15/168 
f 29/14/169 30/12/170 47/13/171 
f 64/12/172 65/11/173 48/16/174 
f 47/13/175 39/15/176 38/17/177 
f 48/16/178 65/11/179 66/15/180 
f 31/14/181 34/12/182 49/13/183 
f 68/12/184 69/11/185 50/16/186 
f 49/13/187 43/15/188 40/17/189 
f 50/16/190 69/11/191 70/15/192 
f 37/14/193 36/12/194 51/13/195 
f 72/12/196 73/11/197 52/16/198 
f 51/13/199 45/15/200 46/17/201 
f 52/16/202 73/11/203 74/15/204 
f 35/14/205 32/12/206 53/13/207 
f 76/12/208 77/11/209 54/16/210 
f 53/13/211 41/15/212 44/17/213 
f 54/16/214 77/11/215 78/15/216 
f 56/11/217 33/16/218 55/12/219 
f 55/12/220 33/16/221 58/13/222 
f 32/11/223 35/18/224 36/15/225 
f 36/15/226 37/17/227 34/13/228 
f 60/12/229 42/16/230 59/13/231 
f 39/12/232 40/10/233 43/11/234 
f 59/13/235 42/16/236 62/15/237 
f 43/11/238 46/18/239 45/15/240 
f 64/12/241 48/16/242 63/13/243 
f 30/12/244 31/10/245 49/11/246 
f 63/13/247 48/16/248 66/15/249 
f 49/11/250 40/18/251 39/15/252 
f 68/12/253 50/16/254 67/13/255 
f 34/12/256 37/10/257 51/11/258 
f 67/13/259 50/16/260 70/15/261 
f 51/11/262 46/18/263 43/15/264 
f 72/12/265 52/16/266 71/13/267 
f 36/12/268 35/10/269 53/11/270 
f 71/13/271 52/16/272 74/15/273 
f 53/11/274 44/18/275 45/15/276 
f 76/12/277 54/16/278 75/13/279 
f 32/12/280 29/10/281 47/11/282 
f 75/13/283 54/16/284 78/15/285 
f 47/11/286 38/18/287 41/15/288 
f 30/12/289 32/11/290 56/11/291 
f 56/11/292 55/12/293 30/12/294 
f 32/11/295 36/15/296 57/15/297 
f 57/15/298 56/11/299 32/11/300 
f 36/15/301 34/13/302 58/13/303 
f 58/13/304 57/15/305 36/15/306 
f 34/13/307 30/12/308 55/12/309 
f 55/12/310 58/13/311 34/13/312 
f 41/13/313 39/12/314 60/12/315 
f 60/12/316 59/13/317 41/13/318 
f 39/12/319 43/11/320 61/11/321 
f 61/11/322 60/12/323 39/12/324 
f 43/11/325 45/15/326 62/15/327 
f 62/15/328 61/11/329 43/11/330 
f 45/15/331 41/13/332 59/13/333 
f 59/13/334 62/15/335 45/15/336 
f 47/13/337 30/12/338 64/12/339 
f 64/12/340 63/13/341 47/13/342 
f 30/12/343 49/11/344 65/11/345 
f 65/11/346 64/12/347 30/12/348 
f 49/11/349 39/15/350 66/15/351 
f 66/15/352 65/11/353 49/11/354 
f 39/15/355 47/13/356 63/13/357 
f 63/13/358 66/15/359 39/15/360 
f 49/13/361 34/12/362 68/12/363 
f 68/12/364 67/13/365 49/13/366 
f 34/12/367 51/11/368 69/11/369 
f 69/11/370 68/12/371 34/12/372 
f 51/11/373 43/15/374 70/15/375 
f 70/15/376 69/11/377 51/11/378 
f 43/15/379 49/13/380 67/13/381 
f 67/13/382 70/15/383 43/15/384 
f 51/13/385 36/12/386 72/12/387 
f 72/12/388 71/13/389 51/13/390 
f 36/12/391 53/11/392 73/11/393 
f 73/11/394 72/12/395 36/12/396 
f 53/11/397 45/15/398 74/15/399 
f 74/15/400 73/11/401 53/11/402 
f 45/15/403 51/13/404 71/13/405 
f 71/13/406 74/15/407 45/15/408 
f 53/13/409 32/12/410 76/12/411 
f 76/12/412 75/13/413 53/13/414 
f 32/12/415 47/11/416 77/11/417 
f 77/11/418 76/12/419 32/12/420 
f 47/11/421 41/15/422 78/15/423 
f 78/15/424 77/11/425 47/11/426 
f 41/15/427 53/13/428 75/13/429 
f 75/13/430 78/15/431 41/15/432 
# 96 faces

